<svg id="Capa_1" data-name="Capa 1" xmlns="http://www.w3.org/2000/svg" xmlns:xlink="http://www.w3.org/1999/xlink" viewBox="0 0 1108.05 570.66"><defs><style>.cls-1,.cls-13,.cls-4,.cls-6{fill:none;}.cls-2{clip-path:url(#clip-path);}.cls-3{fill:#c73085;}.cls-4,.cls-6{stroke:#c73085;}.cls-13,.cls-4,.cls-6{stroke-miterlimit:10;}.cls-4{stroke-width:11.82px;}.cls-5,.cls-7,.cls-8{fill:#fff;}.cls-6{stroke-width:39.41px;}.cls-7{font-size:229.99px;font-family:Coves-Bold, Coves;font-weight:700;}.cls-8{font-size:166.07px;font-family:Coves-Light, Coves;}.cls-9{letter-spacing:0.03em;}.cls-10{letter-spacing:0.03em;}.cls-11{letter-spacing:0em;}.cls-12{letter-spacing:-0.08em;}.cls-13{stroke:#fff;stroke-width:4px;}</style><clipPath id="clip-path"><rect class="cls-1" x="-860.02" y="-794" width="2616.08" height="2090.67"/></clipPath></defs><title>tours-medallo-logo</title><g class="cls-2"><path class="cls-3" d="M38.6,458.73s441.59,62.49,799.18-92.3l-7.45-34.31s-293.64,113-721,53.48Z"/><path class="cls-4" d="M38.6,458.73s441.59,62.49,799.18-92.3l-7.45-34.31s-293.64,113-721,53.48Z"/><path class="cls-5" d="M1050.28,245.52a157.7,157.7,0,0,1,13.36,54.26c.83,10.42-2.11,19.28-10.82,25.65a70.84,70.84,0,0,1-6.79,3.84,32.89,32.89,0,0,0-35.3-30.3c-.77,0-1.54.14-2.3.25-17.52,2.63-32.67,20.08-26.55,42.69l-76.61,15a33,33,0,0,0-35.45-30.44c-.44,0-.88.07-1.33.13A32.18,32.18,0,0,0,847.7,337.5c-7.42,8.54-9.55,18.51-7.26,30-1.22-.54-2-.83-2.7-1.22a15.55,15.55,0,0,1-7.52-11.35q-8.4-43.75-17.05-87.52c-1.71-8.81,2.05-14.33,10.86-16.06l33.1-6.47q74.32-14.5,148.61-29c9.77-1.93,18.67-.17,26.3,6.07a71.62,71.62,0,0,1,11,11.67c1.77,2.3,3.08,3,5.93,2.29,5.16-1.26,10.43-2.16,15.64-3.12s6.27-.18,7.29,5q1.17,6,2.35,12.06c1.28,6.59,2.6,13.17,3.81,19.77a3.62,3.62,0,0,1-2.56,4.43l-.37.08a4,4,0,0,1-4.81-2.88h0c-.21-.75-.34-1.52-.49-2.3q-2.43-12.45-4.86-24.88c-.18-.9-.35-1.77-.54-2.77l-14.58,2.86c.2.54.32.93.5,1.31m-66.87,3.54c1.83,9.49,3.71,19,5.52,28.47.3,1.64.73,2.45,2.67,2.05a39.64,39.64,0,0,1,22.2,3.05c4.44,1.82,8.83,3.71,13.3,5.43a23.89,23.89,0,0,0,14.35,1.14c3.89-.9,7.84-1.57,12.07-2.39-.81-4.07-1.42-8-2.35-11.85a112.09,112.09,0,0,0-14.14-35.19,4.78,4.78,0,0,0-5.88-2.44c-15,3.13-30.09,6-45.14,8.9l-2.87.56c.1,1,.12,1.63.26,2.3m-40.44,5.65c2.11,10.84,4.21,21.71,6.4,32.79.64,0,1.28-.09,1.91-.18l28.2-5.49c1.38-.26,2.46-.42,2-2.4-2-9.9-3.91-19.82-5.86-29.72a8.35,8.35,0,0,0-.46-1.3L943,254.68m-34.18,40.65L941.12,289c-2.1-10.89-4.22-21.69-6.31-32.7l-32.31,6.36c2.1,10.87,4.22,21.69,6.31,32.72M894.1,264.3l-32.24,6.37,6.41,32.61,32.24-6.37-6.4-32.78m-64.2,46.57,30-5.83c-2.11-10.89-4.22-21.75-6.41-32.79l-30,5.84c2.1,11,4.21,21.78,6.39,32.78"/><path class="cls-6" d="M1050.28,245.52a157.7,157.7,0,0,1,13.36,54.26c.83,10.42-2.11,19.28-10.82,25.65a70.84,70.84,0,0,1-6.79,3.84,32.9,32.9,0,0,0-35.3-30.3c-.77,0-1.54.14-2.3.25-17.52,2.64-32.67,20.08-26.55,42.69l-76.61,15a33,33,0,0,0-35.45-30.44c-.44,0-.89.07-1.33.13A32.21,32.21,0,0,0,847.7,337.5c-7.42,8.54-9.55,18.51-7.26,30-1.22-.54-2-.83-2.7-1.22a15.55,15.55,0,0,1-7.52-11.35q-8.4-43.75-17.05-87.52c-1.71-8.81,2.05-14.33,10.86-16.06l33.1-6.47q74.32-14.5,148.61-29c9.77-1.93,18.67-.17,26.3,6.07a71.62,71.62,0,0,1,11,11.67c1.77,2.3,3.08,3,5.93,2.29,5.16-1.26,10.43-2.16,15.64-3.12s6.27-.18,7.29,5q1.17,6,2.35,12.06c1.28,6.59,2.6,13.17,3.81,19.77a3.62,3.62,0,0,1-2.56,4.43l-.37.08a4,4,0,0,1-4.81-2.88h0c-.21-.75-.34-1.52-.49-2.3q-2.43-12.45-4.86-24.88c-.18-.9-.35-1.77-.54-2.77l-14.58,2.86A5.5,5.5,0,0,0,1050.28,245.52Zm-66.78,3.41c1.83,9.49,3.71,19,5.52,28.47.3,1.64.73,2.45,2.67,2.05a39.64,39.64,0,0,1,22.2,3.05c4.44,1.82,8.83,3.71,13.3,5.43a23.89,23.89,0,0,0,14.35,1.14c3.89-.9,7.84-1.57,12.07-2.39-.81-4.07-1.42-8-2.35-11.85a112.09,112.09,0,0,0-14.14-35.19,4.78,4.78,0,0,0-5.88-2.44c-15,3.13-30.09,6-45.14,8.9l-2.88.56C983.34,247.58,983.39,248.26,983.5,248.93ZM943,254.61c2.12,10.84,4.22,21.72,6.41,32.79.64,0,1.28-.09,1.91-.18l28.2-5.49c1.37-.26,2.46-.42,2-2.4-2-9.9-3.91-19.82-5.86-29.72a8.74,8.74,0,0,0-.46-1.3Zm-34.23,40.72L941.12,289c-2.11-10.89-4.22-21.69-6.31-32.7l-32.31,6.36C904.61,273.49,906.73,284.24,908.81,295.33Zm-14.7-31-32.25,6.36,6.41,32.63,32.24-6.37Zm-64.2,46.57,30-5.84c-2.11-10.89-4.22-21.74-6.41-32.78l-30,5.84c2.14,10.89,4.24,21.69,6.38,32.69Z"/><path class="cls-5" d="M877.15,383.5A24.72,24.72,0,1,0,848.05,364a24.89,24.89,0,0,0,29.1,19.53"/><path class="cls-6" d="M877.15,383.5A24.72,24.72,0,1,0,848.05,364,24.89,24.89,0,0,0,877.15,383.5Z"/><path class="cls-5" d="M1037.13,326.81a24.44,24.44,0,0,0-28.69-19.26l-.51.11a24.94,24.94,0,0,0-19.11,29.62A24.48,24.48,0,0,0,1017.94,356l.17,0a24.77,24.77,0,0,0,19.06-29.16"/><path class="cls-6" d="M1037.13,326.81a24.44,24.44,0,0,0-28.69-19.26l-.51.11a24.94,24.94,0,0,0-19.11,29.62A24.48,24.48,0,0,0,1017.94,356l.17,0A24.76,24.76,0,0,0,1037.13,326.81Z"/><path class="cls-5" d="M876.91,383.45a24.59,24.59,0,1,0-.2,0l.2,0"/><path class="cls-5" d="M1036.91,326.76a24.46,24.46,0,0,0-28.75-19.24l-.46.09a25,25,0,0,0-19.12,29.64A24.49,24.49,0,0,0,1017.72,356l.15,0a24.76,24.76,0,0,0,19.06-29.17"/><path class="cls-5" d="M1048.52,245.23a157.75,157.75,0,0,1,13.35,54.26c.84,10.43-2.12,19.28-10.81,25.65a70.93,70.93,0,0,1-6.79,3.85A32.91,32.91,0,0,0,1009,298.68c-.76.06-1.53.14-2.29.25C989.14,301.57,974,319,980.12,341.64l-76.61,14.95A33.07,33.07,0,0,0,868,326.15l-1.3.13a32.32,32.32,0,0,0-20.8,11c-7.41,8.54-9.55,18.51-7.25,30-1.22-.56-2-.83-2.72-1.24a15.55,15.55,0,0,1-7.52-11.35q-8.4-43.75-17.05-87.52c-1.69-8.8,2.06-14.33,10.86-16.06q16.54-3.24,33.12-6.46l148.61-29c9.76-1.92,18.67-.17,26.3,6.06a71.1,71.1,0,0,1,11,11.67c1.79,2.3,3.18,3,6,2.29,5.16-1.25,10.41-2.16,15.64-3.12s6.27-.18,7.28,5l2.34,12c1.29,6.59,2.62,13.17,3.82,19.77a3.61,3.61,0,0,1-2.56,4.43l-.36.08a3.92,3.92,0,0,1-4.79-2.81s0-.05,0-.07a21.83,21.83,0,0,1-.49-2.3q-2.44-12.45-4.86-24.88c-.19-.9-.36-1.76-.54-2.77l-14.58,2.86c.14.45.31.89.49,1.32m-66.83,3.55c1.84,9.5,3.72,19,5.53,28.5.3,1.61.72,2.42,2.68,2a39.43,39.43,0,0,1,22.19,3.05c4.44,1.8,8.84,3.7,13.31,5.43a24,24,0,0,0,14.34,1.13c3.9-.9,7.85-1.57,12.06-2.4-.79-4.07-1.41-8-2.33-11.84a112.23,112.23,0,0,0-14.14-35.19,4.78,4.78,0,0,0-5.9-2.45c-15,3.12-30.08,6-45.13,8.9l-2.87.56c.11.94.13,1.63.25,2.29m-40.38,5.69c2.11,10.84,4.22,21.73,6.4,32.8a17.83,17.83,0,0,0,1.92-.19q14.1-2.75,28.19-5.47c1.38-.28,2.47-.44,2-2.42-2-9.9-3.9-19.82-5.85-29.71a8.55,8.55,0,0,0-.48-1.31l-32.26,6.37m-34.24,40.71,32.32-6.36c-2.11-10.89-4.23-21.69-6.4-32.71l-32.3,6.36c2.11,10.88,4.23,21.68,6.32,32.7m-14.71-31-32.24,6.37,6.4,32.78,32.25-6.37-6.41-32.78m-64.2,46.57,30-5.84c-2.1-10.87-4.21-21.74-6.4-32.78l-30,5.84,6.4,32.78"/></g><text class="cls-7" transform="translate(67.04 310.52)">TOURS</text><text class="cls-8" transform="translate(72.28 471.2) scale(1 1.03)"><tspan class="cls-9">M</tspan><tspan class="cls-10" x="123.92" y="0">E</tspan><tspan class="cls-11" x="219.33" y="0">DAL</tspan><tspan class="cls-12" x="520.57" y="0">L</tspan><tspan x="585.46" y="0">O</tspan></text><g class="cls-2"><path class="cls-13" d="M176.07,352.17a1,1,0,0,1,.81-.42h.56a1,1,0,0,1,1.14,1.17V470a1,1,0,0,1-1.14,1.17H172q-1,0-1-1.17V369.85L132.6,414a1,1,0,0,1-1.7,0l-38.35-44V470c0,.78-.36,1.17-1.06,1.17H86.06A1,1,0,0,1,84.92,470V352.92a1,1,0,0,1,1.14-1.17h.49a1,1,0,0,1,.81.42l44.35,50.88Z"/><path class="cls-13" d="M216.61,359.68v47.87h43.95c.76,0,1.13.39,1.13,1.17v5.51c0,.78-.37,1.17-1.13,1.17H216.61v48h66a1,1,0,0,1,1.13,1.16V470a1,1,0,0,1-1.13,1.17h-72.5A1,1,0,0,1,209,470V352.92a1,1,0,0,1,1.13-1.17h72.5a1,1,0,0,1,1.13,1.17v5.59a1,1,0,0,1-1.13,1.17Z"/><path class="cls-13" d="M339.86,471.2a56.65,56.65,0,0,0,23-4.84,59,59,0,0,0,19-13A60.75,60.75,0,0,0,394.6,434,59.14,59.14,0,0,0,399,410.31a60.34,60.34,0,0,0-4.79-22.86,59.68,59.68,0,0,0-12.57-18.68,56.64,56.64,0,0,0-40.78-17.18H305.56a1,1,0,0,0-1.13,1.16V470a1,1,0,0,0,1.13,1.17ZM312.13,359.43h28.71a49,49,0,0,1,19.7,4.08,51.08,51.08,0,0,1,16,11.18,50.44,50.44,0,0,1,10.87,16.52,53.3,53.3,0,0,1,0,40.37,50.4,50.4,0,0,1-10.87,16.51,49.88,49.88,0,0,1-16,11.1,49,49,0,0,1-19.7,4.08H312.13Z"/><path class="cls-13" d="M464.82,351.59a1.08,1.08,0,0,1,1.05.66l47.36,117.36a1.14,1.14,0,0,1-.08,1.09,1.1,1.1,0,0,1-1,.5h-5.84a1.1,1.1,0,0,1-1.05-.75l-19.7-48.88H437.09L417.3,470.45a1.1,1.1,0,0,1-1.05.75h-5.84a1.22,1.22,0,0,1-1-.5,1.09,1.09,0,0,1-.08-1.09l47.35-117.36a1.1,1.1,0,0,1,1.05-.66Zm17.59,62.14-21.08-52.22-21.08,52.22Z"/><path class="cls-13" d="M589.94,471.2a1,1,0,0,0,1.13-1.17v-5.59a1,1,0,0,0-1.13-1.17H535.53V352.59c0-.72-.38-1.09-1.14-1.09H529c-.76,0-1.14.37-1.14,1.09V470A1,1,0,0,0,529,471.2Z"/><path class="cls-13" d="M667.78,471.2c.76,0,1.13-.39,1.13-1.17v-5.59c0-.78-.37-1.17-1.13-1.17H613.37V352.59a1,1,0,0,0-1.13-1.09H606.8c-.76,0-1.13.37-1.13,1.09V470c0,.78.37,1.17,1.13,1.17Z"/><path class="cls-13" d="M720.49,471.2a56.39,56.39,0,0,0,22.62-4.67A60.83,60.83,0,0,0,761.6,369.1a58.25,58.25,0,0,0-18.49-12.76,56.26,56.26,0,0,0-45.25,0,58.1,58.1,0,0,0-18.48,12.76,60.79,60.79,0,0,0,0,84.58,59.19,59.19,0,0,0,18.48,12.85A56.4,56.4,0,0,0,720.49,471.2Zm0-111.69a48.64,48.64,0,0,1,19.62,4.09,49.53,49.53,0,0,1,16,11.09A51.18,51.18,0,0,1,767,391.21a53.3,53.3,0,0,1,0,40.37,51.25,51.25,0,0,1-10.79,16.51,49.71,49.71,0,0,1-16,11.1,49.24,49.24,0,0,1-39.25,0,49.82,49.82,0,0,1-16.05-11.1A51.25,51.25,0,0,1,674,431.58a53.3,53.3,0,0,1,0-40.37,51.18,51.18,0,0,1,10.79-16.52,49.63,49.63,0,0,1,16.05-11.09A48.68,48.68,0,0,1,720.49,359.51Z"/></g></svg>