<svg id="Capa_1" data-name="Capa 1" xmlns="http://www.w3.org/2000/svg" xmlns:xlink="http://www.w3.org/1999/xlink" viewBox="0 0 1080 1080"><defs><style>.cls-1{fill:none;}.cls-2{clip-path:url(#clip-path);}.cls-3{fill:#f2f2f2;}</style><clipPath id="clip-path"><rect class="cls-1" width="1080" height="1080"/></clipPath></defs><title>Turismo City-cc18</title><g class="cls-2"><path class="cls-3" d="M488.77,444.44h7.74a31.89,31.89,0,0,1,0,63.77h-7.74a31.89,31.89,0,0,1,0-63.77m-31.88,85.73h71.5V788.43h-71.5Z"/><path class="cls-3" d="M769.43,530.17c26.68,89.12,50,168.64,54,192.5h.5c5.59-26,12.6-53.6,43.43-162.18L937,540.17l-77.12,255.7c-24.68,74.28-45.28,96.46-107.31,96.46-6.35,0-21.12-.5-33.49-1.94V833c4.84.55,12.71,1,18.49,1,26.26,0,39.5-9.12,49.17-37.67l-94-266.16Z"/><polygon class="cls-3" points="179.42 282.01 127.4 282.01 127.4 251.67 268.3 251.67 268.3 282.01 216.47 282.01 216.47 422.89 179.42 422.89 179.42 282.01"/><path class="cls-3" d="M368,385.54c0,12.39,0,25.85.25,37.35H333.39c-.49-3.45-.74-10.33-1-14.83-7.62,12.9-19,17.81-35.39,17.81-26.19,0-42.92-15.92-42.92-47.79V294.34h35.56v76.6c0,14.2,4.4,25.93,19.81,25.93,16.23,0,22.94-8.65,22.94-34.11V294.34H368Z"/><path class="cls-3" d="M385.2,329.21c0-12.77,0-24.12-.25-34.87h34.91c.46,2.88.93,15.64.93,22.57,5.67-14.69,19.38-25.43,41.25-25.55v34c-25.83-.67-41.25,6.28-41.25,41.52v56H385.2Z"/><path class="cls-3" d="M483,251.67h3.85a15.87,15.87,0,0,1,0,31.74H483a15.87,15.87,0,1,1,0-31.74m-15.87,42.67h35.59V422.89H467.16Z"/><path class="cls-3" d="M544.81,384.24c2.69,10.24,11.05,16,24.33,16s17.93-4.71,17.93-12.5c0-8.25-5.53-11.49-23.94-16-41.87-10.32-48.73-23.28-48.73-41.42,0-18.89,13.35-38.94,52.13-38.94,39,0,52.19,21.29,53.3,38.71H586c-1.14-4.75-4.3-13.73-21-13.73-11.77,0-15.57,5.21-15.57,11,0,6.4,4,9.49,24.86,14.36,42.89,10,48.95,24.67,48.95,43.52,0,21.28-16.19,40.66-55.38,40.66-39,0-55.14-18.84-58-41.63Z"/><path class="cls-3" d="M631.58,327.47c0-11.11,0-22.13-.25-33.13h34c.47,3.13,1.19,10.31,1.37,15.33,6.53-9.58,16.86-18.31,35.73-18.31,18.47,0,28.63,9.57,33.16,19.56,7.53-10.51,18.63-19.56,39.61-19.56,22.4,0,40.74,13.77,40.74,47.2v84.33H781.25v-80c0-11.61-4.21-23-18.78-23-15.12,0-21,9.75-21,29.47v73.49H706.54V344.23c0-13.32-3.28-24.08-18.47-24.08-14.47,0-21.34,8.89-21.34,31v71.79H631.58Z"/><path class="cls-3" d="M952.6,358.37c0,38.89-23.27,67.5-64,67.5-39.87,0-63.14-28.44-63.14-66.82,0-39.66,24-67.69,64.81-67.69,37.84,0,62.32,26.71,62.32,67m-91,.25c0,24.74,10.65,39.4,27.79,39.4,17.42,0,27.11-14.67,27.11-39.18,0-26.91-9.88-39.63-27.6-39.63-16.51,0-27.3,12.23-27.3,39.41"/><path d="M797.93,535l63.36,31.2a3,3,0,0,1,.67,4.92l-41.63,37.14a3,3,0,0,1-1.92.76l-20.22.51a2.88,2.88,0,0,0-1.69.58l-5.32,3.9a3,3,0,0,0,.36,5l21.11,11.29a3.09,3.09,0,0,1,1.27,1.31l11.29,22.78a3,3,0,0,0,4.55,1l4.18-3.33a3,3,0,0,0,1.12-2.13l1.54-21.13a3,3,0,0,1,1.22-2.2l43.83-32.08a3,3,0,0,1,4.5,1.18l25.74,56.86a3,3,0,0,0,4.77,1l8.58-8a3,3,0,0,0,.83-3l-20.19-70.62a3,3,0,0,1,.7-2.88l37.66-39.78c.27-.29.33-.68.61-1,11.91-12-1.45-28.08-17-15.58-.28.23-.7.29-1,.51l-39.33,30a2.93,2.93,0,0,1-2.62.5l-74-20.87a3,3,0,0,0-2.36.32l-10.86,6.57a3,3,0,0,0,.23,5.25"/><path d="M511.4,722a817,817,0,0,1-143.08-13l3.78-21.31c297.62,52.84,446.66-75.57,448.13-76.87L834.59,627c-1.61,1.42-40.22,35.17-117.36,62.21C669.63,705.89,600.55,722,511.4,722"/><path class="cls-3" d="M436.39,682.39C422.56,746.56,374.18,793.3,288,793.3c-109.07,0-160.64-77.19-160.64-175,0-94.3,53.21-178.8,164.22-178.8,91.59,0,136,53.77,144.4,111.27H361.64c-7.19-26.52-25.65-52.94-72.4-52.94-61.34,0-85,55.17-85,117.77,0,58.16,20.55,119.42,87,119.42,48.54,0,63.86-32.51,70.34-52.58Z"/><path class="cls-3" d="M538,530.17h39.81V460.25h71.51v69.92H700v53.76H649.36V711.39c0,19.59,6,27.21,27.3,27.21a133.28,133.28,0,0,0,16.28-.79V787c-14.19,4.81-33.63,4.93-48.06,4.93-50.38,0-67-26.95-67-72.13V583.93H538Z"/></g></svg>