<svg id="Capa_1" data-name="Capa 1" xmlns="http://www.w3.org/2000/svg" xmlns:xlink="http://www.w3.org/1999/xlink" viewBox="0 0 1080 1080"><defs><style>.cls-1,.cls-5,.cls-6{fill:none;}.cls-2{clip-path:url(#clip-path);}.cls-3{fill:#fff;}.cls-4{fill:#ff0a8e;}.cls-5,.cls-6{stroke:#ff0a8e;stroke-miterlimit:10;}.cls-5{stroke-width:23px;}.cls-6{stroke-width:14.68px;}</style><clipPath id="clip-path"><rect class="cls-1" x="16" y="16" width="1048" height="1048"/></clipPath></defs><title>turismo-city</title><g class="cls-2"><path d="M1081.47,1080.5H4.36V3.39H1081.47Zm1-1078.09H3.39V1081.47H1082.44Z"/><path class="cls-3" d="M490.29,447.27h7.51a30.94,30.94,0,0,1,0,61.88h-7.51a30.94,30.94,0,0,1,0-61.88m-30.94,83.19h69.39V781.07H459.35Z"/><path class="cls-3" d="M762.63,530.46c25.89,86.48,48.47,163.64,52.43,186.8h.49C821,692,830.31,677.38,860.22,572l63.08-2.91L850.44,788.29c-24,72.08-44,93.6-104.14,93.6-6.16,0-20.49-.49-32.5-1.88V824.27c4.7.54,12.33,1,18,1,25.48,0,38.33-8.85,47.71-36.56L688.27,530.46Z"/><polygon class="cls-3" points="190.1 289.66 139.62 289.66 139.62 260.21 276.35 260.21 276.35 289.66 226.06 289.66 226.06 426.36 190.1 426.36 190.1 289.66"/><path class="cls-3" d="M373.12,390.11c0,12,0,25.09.24,36.25H339.52c-.49-3.34-.73-10-.94-14.39-7.39,12.52-18.41,17.28-34.34,17.28-25.42,0-41.65-15.45-41.65-46.38V301.62H297.1V376c0,13.78,4.27,25.16,19.22,25.16,15.75,0,22.26-8.4,22.26-33.1V301.62h34.54Z"/><path class="cls-3" d="M389.79,335.46c0-12.4,0-23.41-.24-33.84h33.87c.45,2.8.9,15.18.9,21.9,5.51-14.25,18.81-24.68,40-24.79v33c-25.07-.65-40,6.09-40,40.29v54.38H389.79Z"/><path class="cls-3" d="M484.72,260.21h3.74a15.4,15.4,0,1,1,0,30.8h-3.74a15.4,15.4,0,0,1,0-30.8m-15.4,41.41h34.54V426.36H469.32Z"/><path class="cls-3" d="M544.67,388.86c2.61,9.93,10.72,15.52,23.61,15.52s17.39-4.58,17.39-12.14c0-8-5.36-11.15-23.22-15.53-40.64-10-47.29-22.6-47.29-40.2,0-18.33,13-37.78,50.58-37.78,37.84,0,50.64,20.66,51.72,37.56H584.62c-1.11-4.61-4.18-13.32-20.42-13.32-11.42,0-15.11,5.06-15.11,10.67,0,6.2,3.88,9.2,24.13,13.92,41.61,9.68,47.5,23.95,47.5,42.24,0,20.65-15.71,39.45-53.74,39.45-37.87,0-53.51-18.28-56.24-40.39Z"/><path class="cls-3" d="M628.87,333.77c0-10.79,0-21.48-.24-32.15h33c.45,3,1.15,10,1.33,14.87,6.33-9.29,16.36-17.76,34.66-17.76,17.93,0,27.79,9.28,32.19,19,7.3-10.2,18.07-19,38.43-19,21.74,0,39.53,13.36,39.53,45.8v81.83H774.1V348.73c0-11.27-4.08-22.28-18.22-22.28-14.68,0-20.4,9.46-20.4,28.59v71.32H701.61V350c0-12.92-3.18-23.37-17.93-23.37-14,0-20.7,8.63-20.7,30v69.67H628.87Z"/><path class="cls-3" d="M940.38,363.75c0,37.74-22.59,65.5-62.1,65.5-38.69,0-61.27-27.6-61.27-64.84,0-38.49,23.29-65.68,62.9-65.68,36.71,0,60.47,25.91,60.47,65m-88.32.24c0,24,10.33,38.24,27,38.24,16.9,0,26.3-14.24,26.3-38,0-26.1-9.58-38.44-26.78-38.44-16,0-26.49,11.86-26.49,38.23"/><path class="cls-4" d="M350.78,726.31s261.16,4.85,458-110.62L802,596.28s-162.64,86.61-415.32,82.48Z"/><path class="cls-5" d="M350.78,726.31s261.16,4.85,458-110.62L802,596.28s-162.64,86.61-415.32,82.48Z"/><path class="cls-3" d="M439.46,678.17C426,740.44,379.09,785.79,295.51,785.79c-105.84,0-155.89-74.9-155.89-169.86,0-91.5,51.64-173.5,159.35-173.5,88.88,0,132,52.17,140.13,108H366.92C360,524.67,342,499,296.67,499c-59.53,0-82.51,53.54-82.51,114.29,0,56.43,19.94,115.87,84.45,115.87,47.09,0,62-31.55,68.25-51Z"/><path class="cls-3" d="M538.1,530.46h38.63V462.61h69.39v67.85h49.09v52.17H646.12V706.31c0,19,5.81,26.41,26.49,26.41a129.11,129.11,0,0,0,15.8-.77v47.73c-13.77,4.66-32.64,4.78-46.64,4.78-48.89,0-65-26.15-65-70V582.63H538.1Z"/><path class="cls-3" d="M177.06,863.37a15.24,15.24,0,0,1-3.59,5.21,17.16,17.16,0,0,1-5.54,3.48,19.24,19.24,0,0,1-7.07,1.26H148V840.44h12.83a19.45,19.45,0,0,1,7.07,1.25,16.76,16.76,0,0,1,5.54,3.45,15.25,15.25,0,0,1,3.59,5.19,16.26,16.26,0,0,1,1.27,6.46v.09a16.47,16.47,0,0,1-1.27,6.49m-6.29-6.49a10.61,10.61,0,0,0-.73-4,9.36,9.36,0,0,0-2-3.15,9.09,9.09,0,0,0-3.12-2,10.76,10.76,0,0,0-4-.73h-5.59V866.8h5.59a11.17,11.17,0,0,0,4-.71,8.63,8.63,0,0,0,3.12-2,9.45,9.45,0,0,0,2-3.1,10.39,10.39,0,0,0,.73-4Z"/><polygon class="cls-3" points="188.38 873.32 188.38 840.44 213.14 840.44 213.14 846.88 195.53 846.88 195.53 853.55 211.03 853.55 211.03 859.98 195.53 859.98 195.53 866.89 213.38 866.89 213.38 873.32 188.38 873.32"/><path class="cls-3" d="M246.36,868a9,9,0,0,1-2.47,3.19,11.19,11.19,0,0,1-3.79,2,16.31,16.31,0,0,1-4.88.68,21.85,21.85,0,0,1-7.38-1.29,19.38,19.38,0,0,1-6.57-4l4.27-5.12a21.71,21.71,0,0,0,4.63,2.91,12.37,12.37,0,0,0,5.19,1.08,6.31,6.31,0,0,0,3.5-.82,2.58,2.58,0,0,0,1.25-2.28v-.09a2.86,2.86,0,0,0-.26-1.24,2.7,2.7,0,0,0-1-1,10,10,0,0,0-2-.94,31.23,31.23,0,0,0-3.37-1,42.27,42.27,0,0,1-4.52-1.36,12.75,12.75,0,0,1-3.44-1.86,7.47,7.47,0,0,1-2.19-2.75,9.61,9.61,0,0,1-.77-4.08v-.1a9.54,9.54,0,0,1,.84-4.06,9.12,9.12,0,0,1,2.35-3.12,10.5,10.5,0,0,1,3.63-2A14.52,14.52,0,0,1,234,840a18.94,18.94,0,0,1,12.21,4.18l-3.76,5.45a23.88,23.88,0,0,0-4.32-2.37,11,11,0,0,0-4.22-.87,5.21,5.21,0,0,0-3.18.82,2.51,2.51,0,0,0-1,2.05v.09a3,3,0,0,0,.3,1.38,2.78,2.78,0,0,0,1.11,1.06,10.29,10.29,0,0,0,2.19.9c.93.28,2.1.61,3.51,1a33.59,33.59,0,0,1,4.45,1.48,12.82,12.82,0,0,1,3.3,2,7.5,7.5,0,0,1,2,2.71,9.07,9.07,0,0,1,.69,3.71v.09a10.21,10.21,0,0,1-.89,4.35"/><polygon class="cls-3" points="272.05 847.11 272.05 873.32 264.81 873.32 264.81 847.11 254.81 847.11 254.81 840.44 282.05 840.44 282.05 847.11 272.05 847.11"/><rect class="cls-3" x="291.54" y="840.44" width="7.23" height="32.88"/><polygon class="cls-3" points="333.68 873.32 317.75 852.42 317.75 873.32 310.61 873.32 310.61 840.44 317.28 840.44 332.69 860.69 332.69 840.44 339.83 840.44 339.83 873.32 333.68 873.32"/><path class="cls-3" d="M383.52,863.48a16.78,16.78,0,0,1-9.18,9.07,18.19,18.19,0,0,1-7,1.34,18,18,0,0,1-7-1.34,17.35,17.35,0,0,1-5.52-3.62,16.15,16.15,0,0,1-3.61-5.35,16.89,16.89,0,0,1-1.3-6.6v-.1a16.55,16.55,0,0,1,1.32-6.6,17.09,17.09,0,0,1,3.64-5.4,16.88,16.88,0,0,1,5.55-3.66,19,19,0,0,1,14,0,17.49,17.49,0,0,1,5.52,3.61,16.19,16.19,0,0,1,3.61,5.36,16.89,16.89,0,0,1,1.3,6.6v.09a16.55,16.55,0,0,1-1.32,6.6m-6.25-6.6a10.83,10.83,0,0,0-.73-4,9.9,9.9,0,0,0-2.06-3.29,10,10,0,0,0-3.17-2.23,10.31,10.31,0,0,0-8,0,9.07,9.07,0,0,0-3.1,2.2,10.33,10.33,0,0,0-2,3.27,10.69,10.69,0,0,0-.73,4v.09a10.92,10.92,0,0,0,.73,4,9.86,9.86,0,0,0,2.06,3.28,10.22,10.22,0,0,0,3.15,2.24,9.72,9.72,0,0,0,4,.82,9.91,9.91,0,0,0,4-.8,9.08,9.08,0,0,0,3.12-2.21,10.21,10.21,0,0,0,2-3.26,10.69,10.69,0,0,0,.73-4Z"/><path class="cls-3" d="M417.77,868a9,9,0,0,1-2.47,3.19,11.09,11.09,0,0,1-3.79,2,16.26,16.26,0,0,1-4.88.68,21.75,21.75,0,0,1-7.37-1.29,19.33,19.33,0,0,1-6.58-4l4.27-5.12a21.71,21.71,0,0,0,4.63,2.91,12.37,12.37,0,0,0,5.19,1.08,6.29,6.29,0,0,0,3.5-.82,2.58,2.58,0,0,0,1.25-2.28v-.09a2.86,2.86,0,0,0-.26-1.24,2.7,2.7,0,0,0-1-1,9.79,9.79,0,0,0-2-.94,31.66,31.66,0,0,0-3.36-1,41.79,41.79,0,0,1-4.53-1.36,12.54,12.54,0,0,1-3.43-1.86,7.4,7.4,0,0,1-2.2-2.75A9.61,9.61,0,0,1,394,850v-.1a9.54,9.54,0,0,1,.84-4.06,9.12,9.12,0,0,1,2.35-3.12,10.59,10.59,0,0,1,3.63-2,14.52,14.52,0,0,1,4.64-.71,19.69,19.69,0,0,1,6.65,1.08,19.37,19.37,0,0,1,5.56,3.1l-3.75,5.45a24.28,24.28,0,0,0-4.33-2.37,11,11,0,0,0-4.22-.87,5.21,5.21,0,0,0-3.18.82,2.51,2.51,0,0,0-1.05,2.05v.09a3,3,0,0,0,.3,1.38,2.78,2.78,0,0,0,1.11,1.06,10.29,10.29,0,0,0,2.19.9c.93.28,2.1.61,3.51,1a33.59,33.59,0,0,1,4.45,1.48,12.82,12.82,0,0,1,3.3,2,7.5,7.5,0,0,1,2,2.71,9.07,9.07,0,0,1,.69,3.71v.09a10.21,10.21,0,0,1-.89,4.35"/><polygon class="cls-3" points="446.28 873.32 446.28 840.44 453.51 840.44 453.51 866.79 469.91 866.79 469.91 873.32 446.28 873.32"/><path class="cls-3" d="M511.15,863.48a16.78,16.78,0,0,1-9.18,9.07,18.19,18.19,0,0,1-7,1.34,18,18,0,0,1-7-1.34,17.35,17.35,0,0,1-5.52-3.62,16.15,16.15,0,0,1-3.61-5.35,16.89,16.89,0,0,1-1.29-6.6v-.1a16.55,16.55,0,0,1,1.31-6.6,17.09,17.09,0,0,1,3.64-5.4,16.88,16.88,0,0,1,5.55-3.66,19,19,0,0,1,14,0,17.49,17.49,0,0,1,5.52,3.61,16.19,16.19,0,0,1,3.61,5.36,16.89,16.89,0,0,1,1.3,6.6v.09a16.55,16.55,0,0,1-1.32,6.6m-6.25-6.6a10.83,10.83,0,0,0-.73-4,9.9,9.9,0,0,0-2.06-3.29,10,10,0,0,0-3.17-2.23,10.31,10.31,0,0,0-8,0,9.07,9.07,0,0,0-3.1,2.2,10.33,10.33,0,0,0-2,3.27,10.69,10.69,0,0,0-.73,4v.09a10.92,10.92,0,0,0,.73,4,9.86,9.86,0,0,0,2.06,3.28A10.22,10.22,0,0,0,491,866.4a9.72,9.72,0,0,0,4,.82,9.91,9.91,0,0,0,4-.8,9.08,9.08,0,0,0,3.12-2.21,10.21,10.21,0,0,0,2-3.26,10.69,10.69,0,0,0,.73-4Z"/><path class="cls-3" d="M548.78,870.46a15.63,15.63,0,0,1-6.53,3,21.93,21.93,0,0,1-4.33.4,16.91,16.91,0,0,1-6.71-1.32,16.16,16.16,0,0,1-8.88-9,17.23,17.23,0,0,1-1.27-6.62v-.1a17.09,17.09,0,0,1,4.79-12,16.43,16.43,0,0,1,5.4-3.66,17.49,17.49,0,0,1,7-1.34,21.81,21.81,0,0,1,4.2.37,17.93,17.93,0,0,1,3.45,1,15.31,15.31,0,0,1,2.87,1.59,19.47,19.47,0,0,1,2.44,2.07l-4.6,5.31a17.61,17.61,0,0,0-3.92-2.73,10.1,10.1,0,0,0-4.49-1,9.14,9.14,0,0,0-6.86,3,10.38,10.38,0,0,0-2,3.27,11.1,11.1,0,0,0-.71,4v.09a11.34,11.34,0,0,0,.71,4,10.46,10.46,0,0,0,1.95,3.28,9,9,0,0,0,6.88,3.06,10.07,10.07,0,0,0,4.77-1,18,18,0,0,0,3.87-2.81l4.61,4.65a24.86,24.86,0,0,1-2.63,2.44"/><path class="cls-3" d="M585.28,873.32l-3-7.37H568.36l-3,7.37H558l14.1-33.11h6.67l14.09,33.11Zm-10-24.42L571,859.56h8.74Z"/><polygon class="cls-3" points="601.53 873.32 601.53 840.44 608.76 840.44 608.76 866.79 625.16 866.79 625.16 873.32 601.53 873.32"/><polygon class="cls-3" points="634.22 873.32 634.22 840.44 658.98 840.44 658.98 846.88 641.36 846.88 641.36 853.55 656.86 853.55 656.86 859.98 641.36 859.98 641.36 866.89 659.21 866.89 659.21 873.32 634.22 873.32"/><path class="cls-3" d="M692.2,868a9.05,9.05,0,0,1-2.48,3.19,11.14,11.14,0,0,1-3.78,2,16.31,16.31,0,0,1-4.88.68,21.81,21.81,0,0,1-7.38-1.29,19.38,19.38,0,0,1-6.57-4l4.27-5.12a21.47,21.47,0,0,0,4.63,2.91,12.37,12.37,0,0,0,5.19,1.08,6.31,6.31,0,0,0,3.5-.82,2.57,2.57,0,0,0,1.24-2.28v-.09a2.72,2.72,0,0,0-.26-1.24,2.56,2.56,0,0,0-1-1,9.67,9.67,0,0,0-2-.94,32.67,32.67,0,0,0-3.37-1,42.27,42.27,0,0,1-4.52-1.36,12.6,12.6,0,0,1-3.44-1.86,7.47,7.47,0,0,1-2.19-2.75,9.45,9.45,0,0,1-.78-4.08v-.1a9.54,9.54,0,0,1,.84-4.06,9.15,9.15,0,0,1,2.36-3.12,10.55,10.55,0,0,1,3.62-2,14.59,14.59,0,0,1,4.65-.71,19.64,19.64,0,0,1,6.64,1.08,19.42,19.42,0,0,1,5.57,3.1l-3.76,5.45a23.88,23.88,0,0,0-4.32-2.37,11,11,0,0,0-4.23-.87,5.18,5.18,0,0,0-3.17.82,2.52,2.52,0,0,0-1.06,2.05v.09a3,3,0,0,0,.31,1.38,2.65,2.65,0,0,0,1.11,1.06,10.29,10.29,0,0,0,2.19.9c.92.28,2.09.61,3.51,1a34.09,34.09,0,0,1,4.45,1.48,12.59,12.59,0,0,1,3.29,2,7.53,7.53,0,0,1,2,2.71,9.24,9.24,0,0,1,.68,3.71v.09a10.21,10.21,0,0,1-.88,4.35"/><path class="cls-3" d="M923.69,530.26a92.27,92.27,0,0,1,11.63,30.59c1.23,6,.15,11.36-4.46,15.68a41.14,41.14,0,0,1-3.67,2.72,19.27,19.27,0,0,0-24-14.79c-10,2.78-17.56,14-12.39,26.71l-43.47,14.16a19.35,19.35,0,0,0-23.54-15,18.88,18.88,0,0,0-11.31,7.84c-3.7,5.49-4.23,11.44-2.08,17.94-.75-.23-1.22-.34-1.66-.52a9.1,9.1,0,0,1-5.18-6.06q-8-24.84-16.15-49.66c-1.62-5,.17-8.48,5.17-10.11l18.78-6.12q42.17-13.73,84.32-27.48c5.54-1.82,10.84-1.43,15.72,1.65a42.2,42.2,0,0,1,7.24,6c1.19,1.21,2,1.5,3.61.91,2.91-1.1,5.91-2,8.87-2.93s3.63-.55,4.59,2.39q1.11,3.42,2.23,6.84c1.21,3.74,2.45,7.47,3.62,11.22a2.12,2.12,0,0,1-1.38,2.83,2.32,2.32,0,0,1-3-1.33c-.18-.42-.31-.86-.45-1.3q-2.3-7.07-4.6-14.12c-.17-.51-.33-1-.51-1.57l-8.27,2.7c.15.3.25.52.38.73M885.11,537c1.74,5.39,3.51,10.77,5.24,16.16.29.93.6,1.37,1.7,1a23.25,23.25,0,0,1,13.12.19c2.71.74,5.4,1.53,8.12,2.21a14,14,0,0,0,8.42-.36c2.2-.8,4.45-1.47,6.85-2.25-.76-2.31-1.4-4.55-2.21-6.72a65.75,65.75,0,0,0-10.73-19.45,2.8,2.8,0,0,0-3.59-1c-8.51,2.89-17.07,5.61-25.61,8.39l-1.63.53c.13.55.19.94.32,1.32M862,543.19c2,6.15,4,12.32,6.06,18.6a10.47,10.47,0,0,0,1.1-.24l16-5.2c.78-.25,1.4-.42,1-1.54-1.88-5.61-3.68-11.24-5.52-16.86a5.35,5.35,0,0,0-.36-.72l-18.31,6M845,569.3l18.33-6c-2-6.18-4-12.31-6-18.56l-18.33,6c2,6.17,4,12.31,6,18.57m-10.76-17-18.29,6L822,576.81l18.29-6-6.06-18.6m-34,31.65,17-5.53c-2-6.18-4-12.34-6.06-18.6l-17,5.53c2,6.23,4,12.36,6.05,18.6"/><path class="cls-6" d="M923.69,530.26a92.27,92.27,0,0,1,11.63,30.59c1.23,6,.15,11.36-4.46,15.68a41.14,41.14,0,0,1-3.67,2.72,19.27,19.27,0,0,0-24-14.79c-10,2.78-17.56,14-12.39,26.71l-43.47,14.16a19.35,19.35,0,0,0-23.54-15,18.88,18.88,0,0,0-11.31,7.84c-3.7,5.49-4.23,11.44-2.08,17.94-.75-.23-1.22-.34-1.66-.52a9.1,9.1,0,0,1-5.18-6.06q-8-24.84-16.15-49.66c-1.62-5,.17-8.48,5.17-10.11l18.78-6.12q42.17-13.73,84.32-27.48c5.54-1.82,10.84-1.43,15.72,1.65a42.2,42.2,0,0,1,7.24,6c1.19,1.21,2,1.5,3.61.91,2.91-1.1,5.91-2,8.87-2.93s3.63-.55,4.59,2.39q1.11,3.42,2.23,6.84c1.21,3.74,2.45,7.47,3.62,11.22a2.12,2.12,0,0,1-1.38,2.83,2.32,2.32,0,0,1-3-1.33c-.18-.42-.31-.86-.45-1.3q-2.3-7.07-4.6-14.12c-.17-.51-.33-1-.51-1.57l-8.27,2.7C923.46,529.83,923.56,530.05,923.69,530.26ZM885.11,537c1.74,5.39,3.51,10.77,5.24,16.16.29.93.6,1.37,1.7,1a23.25,23.25,0,0,1,13.12.19c2.71.74,5.4,1.53,8.12,2.21a14,14,0,0,0,8.42-.36c2.2-.8,4.45-1.47,6.85-2.25-.76-2.31-1.4-4.55-2.21-6.72a65.75,65.75,0,0,0-10.73-19.45,2.8,2.8,0,0,0-3.59-1c-8.51,2.89-17.07,5.61-25.61,8.39l-1.63.53C884.92,536.23,885,536.62,885.11,537ZM862,543.19c2,6.15,4,12.32,6.06,18.6a10.47,10.47,0,0,0,1.1-.24l16-5.2c.78-.25,1.4-.42,1-1.54-1.88-5.61-3.68-11.24-5.52-16.86a5.35,5.35,0,0,0-.36-.72ZM845,569.3l18.33-6c-2-6.18-4-12.31-6-18.56l-18.33,6C841,556.9,843,563,845,569.3Zm-10.76-17-18.29,6L822,576.81l18.29-6Zm-34,31.65,17-5.53c-2-6.18-4-12.34-6.06-18.6l-17,5.53C796.2,571.53,798.19,577.66,800.22,583.9Z"/><path class="cls-3" d="M832.88,622.81a14.58,14.58,0,0,0,9.29-18.19,14.5,14.5,0,0,0-27.6,8.91,14.54,14.54,0,0,0,18.31,9.28"/><path class="cls-6" d="M832.88,622.81a14.58,14.58,0,0,0,9.29-18.19,14.5,14.5,0,0,0-27.6,8.91A14.54,14.54,0,0,0,832.88,622.81Z"/><path class="cls-3" d="M921.84,578.45a14.31,14.31,0,0,0-18.34-9.05,14.61,14.61,0,0,0-9,18.58,14.34,14.34,0,0,0,18.36,8.78,14.5,14.5,0,0,0,9-18.31"/><path class="cls-6" d="M921.84,578.45a14.31,14.31,0,0,0-18.34-9.05,14.61,14.61,0,0,0-9,18.58,14.34,14.34,0,0,0,18.36,8.78A14.5,14.5,0,0,0,921.84,578.45Z"/><path class="cls-3" d="M350.78,726.31s261.16,4.85,458-110.62L802,596.28s-162.64,86.61-415.32,82.48Z"/><path class="cls-3" d="M923.56,530.25a92.35,92.35,0,0,1,11.63,30.59c1.23,6,.14,11.36-4.46,15.68a41.14,41.14,0,0,1-3.67,2.72,19.27,19.27,0,0,0-24-14.79c-10,2.78-17.56,14-12.39,26.72l-43.47,14.15a19.36,19.36,0,0,0-23.54-15,18.94,18.94,0,0,0-11.31,7.85c-3.7,5.49-4.23,11.44-2.08,17.94-.75-.24-1.22-.34-1.67-.53a9.11,9.11,0,0,1-5.18-6.06q-8-24.84-16.15-49.66c-1.61-5,.18-8.48,5.17-10.11q9.39-3.07,18.79-6.12,42.16-13.73,84.32-27.48c5.54-1.81,10.84-1.43,15.72,1.65a41.75,41.75,0,0,1,7.23,6c1.2,1.21,2.06,1.5,3.62.91,2.91-1.1,5.9-2,8.87-2.93s3.63-.55,4.59,2.39l2.22,6.84c1.22,3.74,2.46,7.47,3.63,11.22a2.12,2.12,0,0,1-1.38,2.83,2.3,2.3,0,0,1-3-1.33c-.18-.42-.31-.86-.45-1.3q-2.31-7.07-4.6-14.12c-.17-.51-.33-1-.51-1.57l-8.27,2.7a7.88,7.88,0,0,0,.38.73M885,537c1.75,5.39,3.52,10.77,5.25,16.17.29.92.59,1.36,1.7,1a23.07,23.07,0,0,1,13.12.19c2.71.73,5.4,1.52,8.12,2.21a14.08,14.08,0,0,0,8.42-.37c2.2-.8,4.45-1.47,6.84-2.25-.75-2.31-1.39-4.55-2.2-6.72a65.75,65.75,0,0,0-10.73-19.45,2.79,2.79,0,0,0-3.6-1c-8.5,2.88-17.06,5.61-25.6,8.39l-1.63.53c.13.54.19.94.31,1.31m-23.07,6.19c2,6.15,4,12.33,6.06,18.61a10.63,10.63,0,0,0,1.1-.25q8-2.6,16-5.19c.78-.26,1.4-.43,1-1.55-1.88-5.61-3.68-11.24-5.52-16.85a5,5,0,0,0-.37-.73l-18.3,6m-17,26.11,18.33-6c-2-6.18-4-12.31-6.05-18.56l-18.32,6c2,6.17,4,12.3,6,18.56m-10.76-17-18.29,6,6.06,18.6,18.29-6-6.06-18.6m-34,31.65,17-5.53c-2-6.17-4-12.34-6.06-18.6l-17,5.53,6.06,18.6"/><path class="cls-3" d="M832.74,622.8a14.56,14.56,0,0,0,9.3-18.18,14.5,14.5,0,1,0-9.3,18.18"/><path class="cls-3" d="M921.71,578.44a14.33,14.33,0,0,0-18.35-9.05,14.62,14.62,0,0,0-9,18.59,14.34,14.34,0,0,0,18.36,8.77,14.5,14.5,0,0,0,9-18.31"/></g></svg>