<svg id="Capa_1" data-name="Capa 1" xmlns="http://www.w3.org/2000/svg" xmlns:xlink="http://www.w3.org/1999/xlink" viewBox="0 0 1080 1080"><defs><style>.cls-1{fill:none;}.cls-2{fill:#ff0a8e;}.cls-3{clip-path:url(#clip-path);}.cls-4{fill:#f2f2f2;}</style><clipPath id="clip-path"><rect class="cls-1" x="50" y="50" width="980" height="980"/></clipPath></defs><title>turismo-city</title><circle class="cls-2" cx="540" cy="540" r="540"/><g class="cls-3"><path class="cls-4" d="M493.52,453.29h7a28.93,28.93,0,0,1,0,57.86h-7a28.93,28.93,0,1,1,0-57.86m-28.94,77.79h64.89V765.43H464.58Z"/><path class="cls-4" d="M748.19,531.08c24.2,80.86,45.32,153,49,174.68h.45c5.07-23.63,11.43-48.64,39.4-147.17l63.19-18.43-70,232c-22.4,67.4-41.09,87.53-97.38,87.53-5.75,0-19.16-.46-30.39-1.76V805.82c4.4.51,11.54,1,16.79,1,23.83,0,35.84-8.28,44.61-34.18L678.65,531.08Z"/><polygon class="cls-4" points="212.81 305.9 165.6 305.9 165.6 278.37 293.46 278.37 293.46 305.9 246.43 305.9 246.43 433.73 212.81 433.73 212.81 305.9"/><path class="cls-4" d="M384,399.84c0,11.24,0,23.46.22,33.89H352.52c-.45-3.12-.67-9.37-.87-13.45-6.91,11.7-17.22,16.16-32.12,16.16-23.76,0-38.94-14.45-38.94-43.37v-76h32.27V386.6c0,12.88,4,23.52,18,23.52,14.73,0,20.82-7.85,20.82-30.95V317.09H384Z"/><path class="cls-4" d="M399.53,348.73c0-11.59,0-21.88-.22-31.64H431c.42,2.61.85,14.19.85,20.48,5.15-13.33,17.58-23.08,37.42-23.18V345.2c-23.43-.6-37.42,5.7-37.42,37.68v50.85h-32.3Z"/><path class="cls-4" d="M488.31,278.37h3.49a14.4,14.4,0,0,1,0,28.8h-3.49a14.4,14.4,0,1,1,0-28.8m-14.4,38.72H506.2V433.73H473.91Z"/><path class="cls-4" d="M544.36,398.66c2.45,9.3,10,14.52,22.08,14.52s16.27-4.29,16.27-11.35c0-7.49-5-10.43-21.72-14.53-38-9.36-44.22-21.13-44.22-37.59,0-17.13,12.12-35.32,47.3-35.32,35.39,0,47.36,19.31,48.37,35.11H581.73c-1-4.3-3.91-12.45-19.1-12.45-10.68,0-14.13,4.73-14.13,10,0,5.8,3.62,8.6,22.56,13,38.92,9.05,44.42,22.39,44.42,39.49,0,19.32-14.69,36.9-50.25,36.9s-50-17.1-52.59-37.78Z"/><path class="cls-4" d="M623.1,347.15c0-10.08,0-20.08-.22-30.06h30.88c.42,2.84,1.07,9.35,1.24,13.91,5.92-8.69,15.3-16.61,32.41-16.61,16.77,0,26,8.67,30.1,17.74,6.83-9.54,16.9-17.74,35.94-17.74,20.33,0,37,12.49,37,42.82v76.52H758.91V361.14c0-10.53-3.82-20.84-17-20.84-13.72,0-19.08,8.86-19.08,26.75v66.68H691.12V362.36c0-12.09-3-21.85-16.76-21.85-13.13,0-19.36,8.07-19.36,28.08v65.14H623.1Z"/><path class="cls-4" d="M914.4,375.19c0,35.29-21.12,61.25-58.07,61.25-36.18,0-57.29-25.81-57.29-60.63,0-36,21.77-61.42,58.81-61.42,34.34,0,56.55,24.23,56.55,60.8m-82.59.22c0,22.45,9.67,35.75,25.22,35.75,15.81,0,24.6-13.31,24.6-35.55,0-24.41-9-35.95-25-35.95-15,0-24.77,11.09-24.77,35.75"/><path d="M774.05,535.45l57.5,28.31a2.72,2.72,0,0,1,.6,4.47l-37.78,33.7a2.66,2.66,0,0,1-1.74.69l-18.34.46a2.65,2.65,0,0,0-1.54.53l-4.82,3.53a2.72,2.72,0,0,0,.32,4.59L787.41,622a2.75,2.75,0,0,1,1.15,1.19l10.25,20.67a2.72,2.72,0,0,0,4.12.92l3.79-3a2.76,2.76,0,0,0,1-1.93l1.4-19.18a2.71,2.71,0,0,1,1.11-2L850,589.53a2.72,2.72,0,0,1,4.08,1.07l23.35,51.59a2.72,2.72,0,0,0,4.33.87l7.79-7.26a2.7,2.7,0,0,0,.75-2.73L872,569a2.73,2.73,0,0,1,.64-2.62l34.17-36.1c.24-.26.3-.62.55-.87,10.81-10.89-1.31-25.48-15.44-14.14-.26.21-.64.27-.9.47l-35.68,27.2a2.76,2.76,0,0,1-2.39.45l-67.12-18.94a2.68,2.68,0,0,0-2.14.29l-9.85,6a2.72,2.72,0,0,0,.21,4.76"/><path d="M514.05,705.16a742.34,742.34,0,0,1-129.84-11.83L387.65,674c270.06,47.94,405.3-68.57,406.63-69.76l13,14.7c-1.45,1.29-36.5,31.92-106.49,56.46-43.19,15.14-105.88,29.77-186.77,29.77"/><path class="cls-4" d="M446,669.21c-12.54,58.22-56.45,100.63-134.61,100.63-99,0-145.77-70-145.77-158.83,0-85.57,48.28-162.25,149-162.25,83.11,0,123.41,48.79,131,101H378.15c-6.52-24.07-23.27-48-65.7-48-55.66,0-77.15,50.06-77.15,106.87,0,52.77,18.65,108.36,79,108.36,44,0,57.94-29.51,63.82-47.71Z"/><path class="cls-4" d="M538.22,531.08h36.13V467.63h64.88v63.45h45.91v48.78H639.23V695.52c0,17.78,5.44,24.69,24.77,24.69a119.49,119.49,0,0,0,14.78-.72v44.64c-12.87,4.36-30.52,4.46-43.61,4.46-45.72,0-60.82-24.45-60.82-65.45V579.86H538.22Z"/></g></svg>