<svg id="Capa_1" data-name="Capa 1" xmlns="http://www.w3.org/2000/svg" viewBox="0 0 181 61"><defs><style>.cls-1{fill:#fff;}</style></defs><path class="cls-1" d="M16.32,32.05a4.11,4.11,0,0,0,.19-.56q1.23-5.2,2.43-10.42L22.66,5.14c0-.16.09-.32.14-.48a23.38,23.38,0,0,1,10.33,0c.06.17.13.36.19.56l5.73,20.48c.55,2,1.09,3.92,1.64,5.88l.23.67c.32-1.27.5-2.42.73-3.55s.45-2.29.67-3.44.46-2.29.68-3.43.45-2.29.67-3.44.44-2.29.67-3.44.45-2.29.68-3.43.44-2.29.67-3.44.42-2.29.69-3.44a21.5,21.5,0,0,1,9.51,0l.06.1s0,0,0,.06-.07.33-.12.5L45.77,43.69c-1.77.7-8.11.73-10.56.05-.05-.18-.13-.37-.18-.57L28.88,20.56c-.21-.78-.42-1.55-.64-2.33,0-.16-.1-.32-.17-.54a.81.81,0,0,0-.23.45l-1.53,5.52L20.94,43.11c-.06.2-.13.4-.18.59-1.7.68-7.89.71-10.42,0-.05-.15-.12-.32-.17-.5q-5-19-10-38.05a1,1,0,0,1-.07-.55,20.42,20.42,0,0,1,9.46,0c.15.1.16.28.2.44l2.67,11,3.72,15.41C16.18,31.62,16.24,31.78,16.32,32.05Z"/><path class="cls-1" d="M97.17,21.39c0,.73,0,1.48,0,2.22v20c-.23.21-.48.14-.7.14H88.87l-.65,0a1.6,1.6,0,0,1-.07-.71c0-2,0-3.91,0-5.86,0-3.08,0-6.16,0-9.24,0-2.29,0-4.58,0-6.88,0-1.12,0-2.25,0-3.37,0-.15,0-.3,0-.49.31-.2.62-.41,1-.61a20.43,20.43,0,0,1,4.61-2,27.58,27.58,0,0,1,9.11-1.22A14.07,14.07,0,0,1,111,16.25l.3.23a.43.43,0,0,0,.16.05c.14-.07.31-.16.47-.26a21.87,21.87,0,0,1,7.81-2.77A16.16,16.16,0,0,1,127,14a10.84,10.84,0,0,1,4.65,2.79,7.55,7.55,0,0,1,2.12,4.53,14.28,14.28,0,0,1,.08,1.46V42.89a2,2,0,0,1-.06.77,1.29,1.29,0,0,1-.25.06h-8.34c-.06,0-.12-.05-.22-.09V25.8a6,6,0,0,0-.19-1.64,4.1,4.1,0,0,0-2.11-2.58A4.9,4.9,0,0,0,121,21a11.29,11.29,0,0,0-6,.68.92.92,0,0,0-.18.12,2.49,2.49,0,0,0,.08.35,13.13,13.13,0,0,1,.59,4.08c0,5.59,0,11.17,0,16.76,0,.21,0,.41,0,.59a.83.83,0,0,1-.65.13h-7.51a1.06,1.06,0,0,1-.63-.08,2.1,2.1,0,0,1,0-.75q0-8.39,0-16.76a11.87,11.87,0,0,0-.08-1.33,4.09,4.09,0,0,0-2.5-3.36,6.8,6.8,0,0,0-2.66-.57,14.73,14.73,0,0,0-3.8.37C97.44,21.27,97.33,21.33,97.17,21.39Z"/><path class="cls-1" d="M147.52,41.86V52.72c-1.76,1.46-7,3.14-8.91,2.85,0-.11,0-.23,0-.35s0-.34,0-.51V16.49c0-.28,0-.55,0-.85.21-.1.4-.2.59-.28a21.74,21.74,0,0,1,4.08-1.22,36.9,36.9,0,0,1,9.43-.79A20,20,0,0,1,159,14.59a13.92,13.92,0,0,1,9.09,10.5,21.42,21.42,0,0,1-.09,9.72,14.32,14.32,0,0,1-1.94,4.55,10.12,10.12,0,0,1-6.38,4.52,14.82,14.82,0,0,1-11.52-1.77,4.82,4.82,0,0,0-.5-.27S147.64,41.84,147.52,41.86Zm.06-5.48a5.66,5.66,0,0,0,.56.13,21.59,21.59,0,0,0,4.75.28,8.91,8.91,0,0,0,2.61-.53,5.72,5.72,0,0,0,3.63-3.74l.12-.36a13.23,13.23,0,0,0,.35-4.73,8.25,8.25,0,0,0-1-3.27,6.63,6.63,0,0,0-4.24-3.39,9.78,9.78,0,0,0-2-.31,24.67,24.67,0,0,0-4.38.28,2.55,2.55,0,0,0-.44.15c0,5,0,10.07,0,15.09A3.12,3.12,0,0,0,147.58,36.38Z"/><path class="cls-1" d="M70,13.24a18,18,0,0,1,6.28,1.08A13.68,13.68,0,0,1,84.92,24a18.42,18.42,0,0,1,.57,5.23,17.64,17.64,0,0,1-.94,5.63,13.35,13.35,0,0,1-6,7.39,15.41,15.41,0,0,1-5,1.76,21.66,21.66,0,0,1-5.21.23,16,16,0,0,1-6-1.55,13.32,13.32,0,0,1-7-8,19,19,0,0,1-.85-7.61,16,16,0,0,1,.87-4.22A13.85,13.85,0,0,1,64.71,14,18.74,18.74,0,0,1,70,13.24ZM63.33,28.8c.07.69.1,1.39.2,2.08a7.76,7.76,0,0,0,.87,2.71,5.42,5.42,0,0,0,3.33,2.69,8,8,0,0,0,4.4,0,5.28,5.28,0,0,0,3.17-2.4,6.79,6.79,0,0,0,.84-2,12.8,12.8,0,0,0,.2-5.3,8.39,8.39,0,0,0-.66-2.19,5.67,5.67,0,0,0-4.13-3.27,7.64,7.64,0,0,0-2.78-.08,5.88,5.88,0,0,0-3,1.37,6.45,6.45,0,0,0-2,3.15A11.91,11.91,0,0,0,63.33,28.8Z"/><path class="cls-1" d="M29,59.05c-1.8.06-3.78.08-5.75.18a76.53,76.53,0,0,0-9.68,1c-.9.15-1.79.36-2.69.53a4.21,4.21,0,0,1-.62.09,1.38,1.38,0,0,1-1.41-1.34c0-.44,0-.89,0-1.34V53.91c0-.14,0-.29,0-.44A1.25,1.25,0,0,1,10,52.1c1.59-.27,3.18-.54,4.77-.78s2.94-.42,4.42-.59,3-.31,4.56-.44c1.91-.15,3.82-.25,5.73-.23,2.08,0,4.16.12,6.23.32,1.44.14,2.88.27,4.31.44,1.66.2,3.32.44,5,.69,1.16.17,2.3.37,3.46.56l.37.07a1.26,1.26,0,0,1,1,1.11,4.34,4.34,0,0,1,0,.51c0,1.8,0,3.61,0,5.42,0,.12,0,.25,0,.38a1.39,1.39,0,0,1-1.56,1.32,4.33,4.33,0,0,1-.5-.08,56.07,56.07,0,0,0-5.77-1,89.33,89.33,0,0,0-9-.65Z"/><path class="cls-1" d="M180.72,43.67a2,2,0,0,1-.36,0c-1.72.07-8,0-8.5-.06a3.43,3.43,0,0,1-.06-.34c0-.15,0-.3,0-.45V15c0-.25,0-.5,0-.73a8.23,8.23,0,0,1,3.51-.89,11.86,11.86,0,0,1,5.41.79C180.81,14.74,180.81,43.15,180.72,43.67Z"/><path class="cls-1" d="M176.28,9.28a4.51,4.51,0,0,1-4.6-4.53,4.63,4.63,0,0,1,9.25-.07A4.71,4.71,0,0,1,176.28,9.28Z"/></svg>