<?xml version="1.0" encoding="UTF-8" ?>
<!DOCTYPE svg PUBLIC "-//W3C//DTD SVG 1.1//EN" "http://www.w3.org/Graphics/SVG/1.1/DTD/svg11.dtd">
<svg width="1600pt" height="900pt" viewBox="0 0 1600 900" version="1.1" xmlns="http://www.w3.org/2000/svg">
<g id="#2c2a29fe">
<path fill="#2c2a29" opacity="1.00" d=" M 1334.45 259.55 C 1350.86 256.09 1368.09 270.44 1367.89 287.03 C 1369.15 297.40 1362.26 306.57 1354.49 312.54 C 1344.86 318.74 1331.50 318.56 1322.16 311.86 C 1308.81 303.65 1305.96 283.50 1315.32 271.30 C 1320.16 265.51 1326.58 260.06 1334.45 259.55 Z" />
<path fill="#2c2a29" opacity="1.00" d=" M 232.01 287.17 C 252.03 283.26 272.89 282.39 292.85 287.06 C 306.91 344.46 320.56 401.96 334.65 459.35 C 338.45 446.74 340.98 433.80 344.02 421.00 C 354.47 376.40 364.84 331.79 375.21 287.17 C 396.76 283.19 419.14 282.44 440.64 287.16 C 453.92 335.49 467.49 383.74 481.00 432.00 C 483.72 441.18 485.73 450.59 489.11 459.57 C 501.18 402.24 511.63 344.58 523.26 287.16 C 543.23 283.19 564.07 282.45 584.00 287.07 C 562.58 369.25 540.99 451.38 519.51 533.54 C 497.66 536.80 475.29 537.11 453.46 533.62 C 437.65 478.85 423.66 423.58 408.38 368.66 C 392.70 423.51 378.06 478.66 362.48 533.53 C 343.53 536.57 324.18 536.81 305.11 534.90 C 301.96 534.21 297.30 534.70 296.25 530.91 C 274.90 449.65 253.72 368.33 232.01 287.17 Z" />
<path fill="#2c2a29" opacity="1.00" d=" M 669.42 341.66 C 699.98 340.12 732.01 352.54 750.52 377.53 C 767.73 400.93 771.74 431.53 767.70 459.69 C 763.95 482.33 752.69 504.19 734.22 518.22 C 721.01 527.44 705.66 533.86 689.55 535.47 C 668.96 538.61 647.49 536.84 628.14 528.88 C 611.31 521.83 596.26 509.79 587.24 493.77 C 575.80 475.08 572.84 452.51 573.71 430.96 C 574.77 401.24 590.03 371.34 616.06 356.05 C 631.88 345.96 650.81 341.80 669.42 341.66 M 667.44 390.46 C 660.37 391.29 653.21 393.21 647.33 397.33 C 635.34 406.65 629.93 422.18 630.10 437.00 C 630.14 450.99 632.09 466.19 642.16 476.83 C 653.86 488.92 672.87 490.35 688.16 485.24 C 702.25 480.09 710.16 465.13 711.65 450.84 C 712.90 435.21 713.01 417.19 702.58 404.37 C 694.56 393.69 680.44 388.89 667.44 390.46 Z" />
<path fill="#2c2a29" opacity="1.00" d=" M 786.00 365.95 C 811.95 349.07 843.34 342.17 874.01 342.02 C 894.99 341.48 915.35 349.67 931.94 362.13 C 955.76 347.76 983.80 339.95 1011.70 342.28 C 1031.65 344.44 1052.19 353.11 1063.90 370.07 C 1071.95 380.48 1072.44 394.37 1072.94 406.98 C 1073.14 448.98 1072.93 490.98 1072.99 532.98 C 1054.32 533.03 1035.66 533.02 1017.01 532.99 C 1016.91 496.31 1017.10 459.64 1017.01 422.98 C 1017.29 414.38 1015.25 405.25 1009.08 398.93 C 1003.85 394.06 997.00 390.98 989.89 390.24 C 977.46 389.16 964.68 390.15 953.05 394.86 C 955.19 403.42 957.11 412.09 956.92 420.98 C 957.19 458.31 956.90 495.65 956.99 532.99 C 938.33 533.03 919.66 533.02 901.01 532.99 C 900.84 494.65 901.23 456.31 900.92 417.97 C 901.85 405.10 891.44 393.29 879.02 391.05 C 866.87 388.82 854.28 389.41 842.32 392.43 C 841.57 439.28 842.22 486.13 841.99 532.98 C 822.95 533.02 803.92 533.03 784.89 532.98 C 787.17 477.34 785.48 421.62 786.00 365.95 Z" />
<path fill="#2c2a29" opacity="1.00" d=" M 1102.06 356.14 C 1124.80 346.72 1149.52 343.09 1173.98 342.05 C 1198.81 340.88 1224.82 344.52 1246.42 357.53 C 1260.01 365.93 1271.88 377.55 1279.03 391.97 C 1286.42 405.28 1289.16 420.57 1290.49 435.57 C 1292.25 457.65 1288.86 480.60 1278.24 500.24 C 1271.41 512.24 1261.70 523.13 1249.00 529.00 C 1234.86 535.85 1218.78 537.14 1203.32 536.66 C 1187.37 535.74 1172.56 529.02 1159.01 521.02 C 1158.73 543.02 1159.41 565.03 1158.94 587.04 C 1158.89 590.77 1154.20 591.82 1151.91 593.84 C 1136.71 602.46 1119.25 606.32 1102.04 608.31 C 1101.98 524.25 1101.94 440.20 1102.06 356.14 M 1159.02 389.09 C 1158.97 421.76 1158.97 454.42 1159.03 487.10 C 1172.08 489.15 1185.39 489.83 1198.57 488.44 C 1207.97 487.06 1217.56 483.28 1223.70 475.72 C 1234.29 463.98 1234.79 446.92 1233.88 432.02 C 1233.11 415.03 1223.28 397.40 1206.98 391.05 C 1191.89 384.36 1174.88 387.33 1159.02 389.09 Z" />
<path fill="#2c2a29" opacity="1.00" d=" M 1310.94 346.74 C 1328.94 340.63 1349.19 339.73 1367.02 346.86 C 1366.97 408.90 1367.02 470.94 1366.99 532.98 C 1348.32 533.03 1329.66 533.02 1311.01 532.99 C 1310.95 470.90 1311.08 408.82 1310.94 346.74 Z" />
<path fill="#2c2a29" opacity="1.00" d=" M 388.45 573.59 C 436.80 570.49 485.08 576.42 532.69 584.33 C 536.34 585.33 540.82 585.48 543.71 588.31 C 545.65 591.82 544.37 596.17 545.07 599.97 C 544.83 612.23 546.32 624.86 543.85 636.91 C 539.27 643.59 530.70 639.21 524.37 638.70 C 476.26 628.91 426.88 629.43 378.03 630.20 C 352.18 631.80 326.23 633.93 301.01 640.14 C 296.33 641.59 291.03 640.11 288.39 635.74 C 287.57 620.61 287.45 605.39 288.42 590.29 C 289.66 585.57 295.90 585.64 299.60 584.59 C 329.05 579.76 358.65 575.53 388.45 573.59 Z" />
</g>
</svg>
